<svg width="20" height="20" viewBox="0 0 20 20" fill="none" xmlns="http://www.w3.org/2000/svg">
<path d="M7.591 11.9565L7.91078 11.9579C12.5552 11.9983 15.183 12.9363 15.183 15.4985C15.183 18.0064 12.6645 18.9738 8.22314 19.0549L7.591 19.0605C2.74666 19.0605 0 18.1396 0 15.5185C0 12.8939 2.75759 11.9565 7.591 11.9565ZM7.591 13.4565C3.57365 13.4565 1.5 14.1614 1.5 15.5185C1.5 16.8669 3.56868 17.5605 7.591 17.5605C11.6086 17.5605 13.683 16.8555 13.683 15.4985C13.683 14.1508 11.6124 13.4565 7.591 13.4565ZM15.5867 11.2483C16.1673 11.2878 16.7444 11.371 17.2991 11.494C18.4872 11.7303 19.3705 12.1715 19.7752 13.0206C20.074 13.6494 20.074 14.3808 19.7752 15.0095C19.3728 15.8565 18.4987 16.2945 17.3039 16.5402C16.8982 16.6237 16.5016 16.3624 16.4182 15.9567C16.3347 15.551 16.596 15.1544 17.0017 15.071C17.7705 14.9128 18.2823 14.6564 18.4204 14.3656C18.5256 14.1444 18.5256 13.8858 18.4208 13.6653C18.2817 13.3734 17.7673 13.1165 16.9907 12.9619C16.4933 12.8518 15.9905 12.7793 15.4849 12.7449C15.0716 12.7168 14.7594 12.359 14.7875 11.9457C14.8156 11.5324 15.1734 11.2202 15.5867 11.2483ZM7.591 0C10.439 0 12.726 2.28661 12.726 5.134C12.726 7.98221 10.4392 10.269 7.591 10.269C4.74293 10.269 2.457 7.98235 2.457 5.134C2.457 2.28647 4.74311 0 7.591 0ZM14.0197 1.0696C16.2546 1.0696 18.0667 2.88208 18.0667 5.1166C18.0667 7.35181 16.2549 9.1636 14.0197 9.1636C13.6055 9.1636 13.2697 8.82781 13.2697 8.4136C13.2697 7.99939 13.6055 7.6636 14.0197 7.6636C15.4265 7.6636 16.5667 6.52339 16.5667 5.1166C16.5667 3.71043 15.4261 2.5696 14.0197 2.5696C13.6055 2.5696 13.2697 2.23381 13.2697 1.8196C13.2697 1.40539 13.6055 1.0696 14.0197 1.0696ZM7.591 1.5C5.57159 1.5 3.957 3.11484 3.957 5.134C3.957 7.15403 5.57146 8.769 7.591 8.769C9.61079 8.769 11.226 7.15379 11.226 5.134C11.226 3.11509 9.61066 1.5 7.591 1.5Z" fill="white"/>
</svg>
